<?xml version="1.0" standalone="no"?>
<!DOCTYPE svg PUBLIC "-//W3C//DTD SVG 20010904//EN"
 "http://www.w3.org/TR/2001/REC-SVG-20010904/DTD/svg10.dtd">
<svg version="1.0" xmlns="http://www.w3.org/2000/svg"
 width="450.000000pt" height="844.000000pt" viewBox="0 0 450.000000 844.000000"
 preserveAspectRatio="xMidYMid meet">
<metadata>
Created by potrace 1.10, written by Peter Selinger 2001-2011
</metadata>
<g transform="translate(0.000000,844.000000) scale(0.100000,-0.100000)"
fill="#000000" stroke="none">
<path d="M891 8343 c-1 -49 -5 -124 -9 -168 -4 -45 -3 -121 4 -175 6 -60 7
-130 2 -190 -5 -52 -6 -201 -2 -330 3 -129 6 -239 6 -245 -1 -5 -6 -145 -11
-310 -6 -165 -13 -313 -15 -330 -3 -16 0 -88 5 -160 6 -71 11 -379 13 -684 l2
-553 36 -33 c50 -46 113 -54 204 -25 43 13 110 24 175 27 124 7 127 4 105 -85
-8 -32 -20 -105 -27 -165 -11 -92 -10 -127 3 -245 9 -80 23 -152 34 -174 l17
-37 -66 -62 c-106 -96 -150 -190 -166 -353 -5 -50 -13 -102 -17 -116 l-8 -25
40 30 c38 29 43 30 159 32 161 3 215 17 293 78 34 26 62 52 62 56 0 5 -37 -10
-82 -33 -54 -28 -83 -38 -86 -30 -2 7 -9 12 -16 12 -14 0 -66 54 -66 69 0 5
-7 14 -15 21 -8 7 -15 18 -15 26 0 10 24 12 103 11 80 -2 110 2 137 16 l35 17
-50 -4 c-27 -3 -70 -1 -95 3 -25 5 -39 9 -32 10 20 2 14 21 -7 21 -11 0 -27 7
-35 16 -20 20 -22 41 -2 25 7 -6 21 -9 29 -5 9 3 42 -6 73 -20 58 -27 80 -31
108 -20 27 11 17 24 -17 24 -21 0 -41 8 -52 20 -10 11 -25 20 -33 20 -25 0 17
40 42 40 18 1 18 3 -7 16 -15 8 -25 19 -22 24 4 6 0 10 -7 10 -18 0 -55 56
-84 127 -35 86 -29 97 10 18 42 -84 58 -105 80 -105 17 0 22 25 7 34 -5 4 -16
27 -25 53 -9 25 -23 55 -33 65 -9 10 -13 21 -9 26 7 6 18 -5 69 -70 l18 -23
-6 30 c-19 97 -18 116 4 131 27 19 28 39 2 24 -26 -13 -31 -13 -26 3 3 7 -4
30 -15 52 -22 43 -25 59 -10 50 14 -9 13 128 -1 142 -6 6 -17 9 -24 7 -21 -8
-30 18 -10 28 33 19 93 171 115 290 11 62 23 122 26 132 4 13 -1 25 -14 35
-24 18 -46 125 -32 152 6 11 3 21 -11 33 -20 17 -21 17 -15 -6 15 -52 -29 40
-54 117 -32 94 -30 115 8 79 15 -13 28 -20 30 -14 5 14 34 12 57 -4 28 -18 77
-29 84 -18 3 5 15 6 26 1 20 -8 20 -8 0 -8 -15 -1 -17 -3 -6 -10 27 -17 57 2
52 33 -1 5 5 6 13 3 8 -3 17 1 20 9 3 9 1 12 -4 9 -14 -9 -13 -3 13 46 18 34
30 45 52 47 27 3 28 2 20 -30 -5 -18 -9 -51 -9 -73 -1 -38 0 -40 28 -38 16 1
43 -8 63 -22 48 -32 95 -24 150 26 23 21 54 41 70 44 44 10 58 20 61 48 4 33
-30 69 -55 60 -10 -4 -26 -18 -37 -31 -10 -13 -22 -20 -27 -15 -29 29 54 103
107 93 32 -5 88 -44 136 -93 17 -17 29 -24 33 -17 4 6 13 9 20 6 7 -2 18 1 24
7 6 6 11 7 11 1 0 -5 11 -9 25 -9 19 0 28 7 36 33 6 17 15 32 19 32 5 0 7 6 4
14 -3 8 -1 17 5 20 6 4 8 13 4 21 -3 8 -1 15 5 15 6 0 9 8 7 18 -1 9 8 26 22
37 21 17 29 35 32 68 1 5 6 5 13 1 6 -4 8 -3 5 3 -3 5 0 31 7 58 15 60 2 125
-26 125 -27 0 -69 -52 -81 -100 0 -3 -16 -22 -35 -42 -45 -49 -123 -78 -187
-72 -43 4 -101 27 -115 46 -7 9 -50 -2 -50 -13 0 -5 -11 -4 -25 1 -23 9 -25 7
-25 -18 l-1 -27 -24 28 c-13 15 -29 45 -35 67 -6 21 -14 41 -18 44 -4 2 -33
-1 -65 -6 -54 -10 -58 -12 -53 -33 8 -31 -10 -76 -27 -69 -7 2 -18 15 -23 28
-9 22 -10 22 -26 4 -17 -17 -17 -18 2 -18 l20 0 -20 -39 c-25 -50 -101 -130
-117 -124 -7 3 -13 0 -13 -5 0 -16 -56 -7 -90 15 l-32 20 28 8 29 7 -22 18
c-13 10 -23 25 -23 33 0 14 -31 47 -44 47 -4 0 -16 -10 -25 -21 -23 -28 -56
-18 -78 24 -17 33 -24 107 -10 107 4 0 7 6 7 14 0 8 11 23 25 34 14 11 25 25
25 31 0 6 6 11 13 12 6 0 53 5 102 10 50 6 104 9 120 8 67 -4 158 2 149 10 -2
2 1 12 6 22 7 12 7 20 0 24 -17 11 -2 22 27 21 20 -1 28 -6 28 -18 0 -10 5
-18 10 -17 6 0 8 8 7 17 -2 9 -1 14 4 10 4 -5 14 1 21 12 8 11 26 26 41 34 30
15 234 86 248 86 23 0 -62 -41 -103 -50 -50 -12 -183 -77 -183 -91 0 -4 5 -11
10 -14 6 -4 7 -11 4 -17 -5 -8 -1 -9 12 -3 10 4 35 11 54 15 58 12 161 51 235
88 51 26 85 36 127 38 31 1 65 7 75 12 16 9 15 11 -9 17 -15 4 -26 12 -25 19
1 6 -5 9 -13 8 -8 -2 -12 0 -8 4 12 11 58 14 58 3 0 -5 4 -9 10 -9 5 0 7 8 3
18 -20 58 -100 57 -273 -5 -25 -8 -76 -26 -115 -39 -38 -13 -79 -28 -90 -33
-54 -25 -206 -51 -300 -51 -55 0 -107 -5 -115 -10 -11 -7 -5 -10 23 -10 20 0
37 -4 37 -9 0 -5 10 -12 23 -15 12 -2 -9 -3 -48 -2 -38 2 -74 5 -80 6 -5 1
-31 2 -57 1 -39 -1 -53 -6 -76 -31 -16 -17 -34 -30 -40 -30 -13 0 -27 -94 -26
-176 0 -40 10 -87 29 -138 15 -42 26 -79 23 -81 -7 -7 -58 93 -58 114 0 23
-29 63 -30 40 0 -8 5 -20 12 -27 6 -6 9 -14 6 -18 -4 -3 -16 12 -27 34 -11 22
-18 42 -14 45 9 10 -7 58 -17 52 -5 -3 -7 4 -5 15 2 11 0 20 -4 20 -8 0 -56
99 -65 135 -3 11 -20 29 -37 40 -26 17 -30 25 -26 55 2 19 -2 44 -10 56 -8 12
-18 73 -24 140 -5 66 -13 142 -18 169 -10 60 -8 101 8 175 6 30 18 90 26 133
15 78 43 135 85 172 12 11 31 38 41 60 10 22 35 58 55 80 20 22 44 56 55 76
22 44 94 108 163 145 39 21 68 29 128 32 54 3 78 1 78 -7 0 -7 -23 -11 -64
-11 -60 0 -68 -3 -122 -43 -33 -24 -66 -52 -74 -62 -14 -16 -13 -17 18 -10 31
6 32 6 21 -12 -6 -11 -26 -26 -43 -33 -23 -11 -27 -15 -13 -18 9 -2 17 -8 17
-13 0 -5 -8 -9 -17 -10 -11 0 -8 -4 10 -11 27 -10 33 -35 12 -50 -6 -5 -6 -8
2 -8 6 0 18 6 25 13 26 26 64 46 127 66 71 23 107 27 48 6 -38 -14 -88 -45
-73 -45 5 0 -3 -11 -18 -25 -15 -14 -32 -25 -39 -25 -20 0 -126 -35 -134 -44
-12 -13 84 2 120 18 112 51 148 58 99 20 -24 -19 -31 -31 -27 -45 5 -14 1 -19
-14 -19 -12 0 -21 -6 -21 -13 0 -7 -30 -29 -67 -49 -74 -39 -94 -68 -46 -68
16 0 39 7 51 16 16 11 39 15 77 12 51 -3 53 -2 38 15 -9 9 -14 19 -12 21 7 8
154 -43 164 -57 16 -22 42 -27 76 -15 40 14 24 24 -58 39 -85 16 -100 30 -24
22 l63 -6 -17 26 c-17 27 -44 36 -117 40 -61 4 -56 17 8 18 38 0 52 3 40 8
-33 13 -3 22 91 27 49 3 104 8 123 11 l35 6 -30 7 -30 6 47 21 c26 12 49 30
53 42 3 12 11 21 16 21 6 0 8 4 5 8 -6 9 -92 8 -171 -2 -45 -6 -48 -6 -27 6
24 15 20 28 -10 28 -10 0 -18 -6 -18 -14 0 -7 -10 -16 -22 -20 -37 -9 -45 -6
-19 8 l24 13 -27 7 c-15 4 -37 4 -49 1 -22 -6 -22 -6 -2 10 11 9 19 22 17 29
-1 9 16 15 55 20 69 8 147 32 162 50 8 10 5 16 -14 26 -19 10 -22 16 -14 27
15 17 4 16 -62 -3 -59 -17 -85 -34 -54 -34 26 0 -52 -49 -78 -50 -25 0 -16 22
14 37 13 7 24 16 24 20 0 16 48 56 90 74 27 12 64 19 97 18 29 0 62 1 73 3 12
2 19 -2 18 -9 -2 -8 8 -13 25 -13 26 1 26 1 8 15 -25 19 -12 33 14 17 11 -7
25 -12 32 -12 6 0 20 -7 30 -17 10 -9 18 -11 18 -5 0 6 -6 13 -12 15 -8 3 -9
6 -2 6 6 1 32 -17 57 -39 50 -44 59 -47 78 -24 11 14 14 13 26 -10 8 -14 21
-26 31 -26 16 -1 16 -1 -1 -11 -9 -6 -15 -14 -12 -20 8 -12 45 -12 45 1 0 6 7
10 16 10 12 0 15 -6 10 -24 -3 -14 -1 -28 5 -31 5 -4 10 -19 9 -33 -4 -49 1
-57 15 -27 7 17 14 24 14 17 1 -8 7 -12 14 -9 6 2 20 0 30 -5 24 -12 83 0 69
14 -6 6 -25 14 -44 18 l-33 8 31 1 c43 1 101 -25 109 -49 3 -11 16 -27 28 -37
12 -10 38 -38 56 -63 19 -25 46 -58 60 -73 21 -23 25 -38 26 -84 0 -31 5 -58
10 -60 10 -3 13 72 3 82 -3 3 -2 22 1 43 5 30 3 608 -3 822 0 30 2 70 6 88 7
29 5 34 -17 42 -14 5 -25 13 -25 17 0 17 -69 44 -158 62 -99 20 -132 39 -132
78 l0 23 -844 0 -844 0 -1 -87z m1248 -569 c2 -2 2 -7 -1 -10 -4 -3 -19 2 -35
11 l-28 16 30 -6 c16 -4 32 -9 34 -11z m218 -81 c-4 -3 -10 -3 -14 0 -3 4 0 7
7 7 7 0 10 -3 7 -7z m-495 -21 c-8 -2 -29 -18 -48 -35 -32 -27 -38 -29 -77
-21 l-42 9 45 14 c25 7 63 21 85 32 21 10 42 15 45 12 3 -3 -1 -8 -8 -11z
m818 -87 c19 -19 32 -35 29 -35 -3 0 -20 16 -39 35 -19 19 -32 35 -29 35 3 0
20 -16 39 -35z m-910 -39 c-19 -18 -90 -32 -90 -18 0 9 56 29 90 31 13 1 13
-1 0 -13z m170 -94 c0 -16 -36 -41 -79 -57 -89 -31 -91 -15 -4 36 48 28 83 37
83 21z m-160 -66 c0 -3 -5 -8 -12 -12 -7 -4 -8 -3 -4 4 7 12 16 16 16 8z m680
-826 c0 -5 -10 -10 -23 -10 -12 0 -31 -6 -42 -14 -23 -15 -57 -17 -52 -3 2 6
15 12 30 14 15 2 37 8 50 13 30 12 37 12 37 0z m-833 -537 c-4 -3 -10 -3 -14
0 -3 4 0 7 7 7 7 0 10 -3 7 -7z m930 -110 c-4 -3 -7 0 -7 7 0 7 3 10 7 7 3 -4
3 -10 0 -14z m-961 -80 c-11 -11 -17 4 -9 23 7 18 8 18 11 1 2 -10 1 -21 -2
-24z m581 10 c-4 -3 -7 0 -7 7 0 7 3 10 7 7 3 -4 3 -10 0 -14z m-547 -12 c0
-6 -4 -13 -10 -16 -5 -3 -10 1 -10 9 0 9 5 16 10 16 6 0 10 -4 10 -9z m-123
-368 c-3 -10 -5 -4 -5 12 0 17 2 24 5 18 2 -7 2 -21 0 -30z m72 -246 c14 -14
14 -30 0 -21 -15 9 -45 80 -53 124 -4 23 2 13 18 -29 13 -35 29 -68 35 -74z
m-35 -144 c12 -40 -11 -25 -28 17 -22 55 -20 84 3 40 10 -19 22 -45 25 -57z"/>
<path d="M3696 8415 c4 -9 0 -15 -10 -15 -11 0 -16 -9 -16 -27 0 -19 3 -24 9
-15 4 7 14 15 22 17 52 12 58 17 46 36 -14 23 -59 27 -51 4z"/>
<path d="M3875 8410 c21 -14 33 -16 42 -8 23 19 14 28 -29 28 l-43 0 30 -20z"/>
<path d="M4073 8423 c4 -3 10 -3 14 0 3 4 0 7 -7 7 -7 0 -10 -3 -7 -7z"/>
<path d="M3710 8350 c0 -7 3 -10 7 -7 3 4 3 10 0 14 -4 3 -7 0 -7 -7z"/>
<path d="M3378 8321 l-32 -28 32 -17 c18 -9 32 -12 32 -7 0 5 9 12 19 16 19 6
38 41 28 51 -16 17 -51 10 -79 -15z"/>
<path d="M3172 8300 c-12 -16 -22 -36 -22 -44 0 -21 58 -66 86 -66 31 0 80 54
76 83 -5 32 -42 57 -83 57 -28 0 -40 -6 -57 -30z"/>
<path d="M3930 8226 c-5 -13 -13 -25 -18 -27 -10 -4 -15 -41 -13 -86 1 -29 51
-56 86 -47 62 15 80 162 22 178 -45 12 -67 7 -77 -18z"/>
<path d="M4096 8227 c-44 -32 10 -97 61 -74 21 9 24 16 19 41 -9 45 -44 60
-80 33z"/>
<path d="M4285 8156 c-17 -18 -21 -39 -26 -156 -3 -74 -5 -201 -4 -282 0 -137
2 -149 22 -169 29 -29 59 -18 66 24 2 17 6 97 7 177 2 80 4 188 5 240 1 66 -3
106 -13 130 -8 19 -15 38 -14 42 3 16 -25 12 -43 -6z"/>
<path d="M3276 8033 c-4 -5 -11 -8 -14 -9 -4 0 -24 -4 -45 -9 -25 -5 -42 -4
-50 4 -14 14 -39 14 -69 0 -26 -11 -52 -77 -41 -106 16 -43 82 -79 98 -53 4 6
23 0 50 -14 45 -26 77 -25 104 2 18 18 25 139 9 170 -12 22 -28 28 -42 15z"/>
<path d="M4110 7982 c0 -7 -4 -10 -10 -7 -5 3 -10 -4 -11 -17 0 -13 -3 -34 -5
-48 -15 -76 -22 -234 -13 -258 6 -15 10 -28 10 -29 -9 -31 43 -31 63 0 11 16
15 55 16 147 1 193 -1 212 -18 205 -9 -3 -19 0 -24 7 -6 11 -8 10 -8 0z"/>
<path d="M3970 7933 c0 -7 -7 -10 -15 -7 -8 4 -15 1 -15 -6 0 -6 -4 -9 -9 -6
-24 15 -34 -81 -22 -199 1 -6 15 -19 33 -29 30 -18 32 -18 45 -1 19 27 18 214
-2 241 -8 10 -15 14 -15 7z"/>
<path d="M3633 7853 c4 -3 10 -3 14 0 3 4 0 7 -7 7 -7 0 -10 -3 -7 -7z"/>
<path d="M3610 7826 c0 -9 7 -16 16 -16 17 0 14 22 -4 28 -7 2 -12 -3 -12 -12z"/>
<path d="M3608 7783 c6 -2 18 -2 25 0 6 3 1 5 -13 5 -14 0 -19 -2 -12 -5z"/>
<path d="M3583 7754 c20 -71 20 -70 5 -51 -13 17 -14 16 -15 -16 -1 -22 4 -38
12 -41 9 -3 12 0 9 8 -3 8 -1 17 5 20 5 4 12 -3 16 -14 10 -30 26 -24 19 8 -4
22 -3 24 6 12 10 -13 11 -12 6 3 -3 10 -6 31 -6 46 0 15 -6 28 -12 28 -7 0
-21 4 -32 8 -15 7 -17 4 -13 -11z"/>
<path d="M2004 7556 c-30 -14 -54 -36 -37 -36 4 0 26 11 48 25 44 27 38 32
-11 11z"/>
<path d="M3248 7481 c4 -10 1 -13 -11 -8 -41 15 -64 -224 -27 -273 9 -12 30
-23 47 -25 45 -6 55 27 52 162 -3 131 -11 161 -43 159 -16 -1 -22 -6 -18 -15z"/>
<path d="M2584 7464 c3 -9 6 -21 6 -27 0 -8 4 -7 9 2 7 11 14 10 40 -8 42 -30
40 -9 -2 23 -39 30 -62 34 -53 10z"/>
<path d="M3091 7462 c0 -8 -10 -25 -21 -39 -12 -16 -20 -41 -20 -65 0 -44 27
-98 48 -98 7 0 10 5 7 10 -3 6 1 13 9 16 9 3 16 12 16 20 0 8 4 14 8 14 5 0 8
29 8 64 -1 60 -2 64 -23 60 -14 -3 -23 2 -26 13 -3 10 -5 12 -6 5z"/>
<path d="M2682 7376 c2 -16 9 -31 16 -34 17 -5 15 20 -3 44 -15 18 -15 18 -13
-10z"/>
<path d="M4089 7383 c-26 -7 -37 -44 -33 -118 3 -49 9 -74 21 -86 24 -23 69
-14 77 14 11 42 6 134 -10 165 -15 31 -22 34 -55 25z"/>
<path d="M1623 7313 c4 -3 10 -3 14 0 3 4 0 7 -7 7 -7 0 -10 -3 -7 -7z"/>
<path d="M1990 7234 l-55 -14 59 5 c32 2 64 9 69 14 14 14 0 13 -73 -5z"/>
<path d="M2063 7190 c-13 -5 -23 -11 -23 -14 0 -7 40 6 46 15 6 10 6 10 -23
-1z"/>
<path d="M1973 7183 c4 -3 10 -3 14 0 3 4 0 7 -7 7 -7 0 -10 -3 -7 -7z"/>
<path d="M1725 7152 c2 -23 1 -24 -10 -9 -6 9 -15 14 -18 10 -17 -16 47 -49
113 -58 8 -1 32 -6 53 -10 25 -5 37 -4 37 4 0 6 -5 11 -11 11 -5 0 -27 11 -47
25 -20 14 -43 25 -52 25 -8 0 -27 6 -41 14 -26 13 -27 13 -24 -12z"/>
<path d="M1643 7103 c4 -3 10 -3 14 0 3 4 0 7 -7 7 -7 0 -10 -3 -7 -7z"/>
<path d="M1597 7073 c3 -7 16 -13 30 -13 21 0 23 3 14 14 -15 18 -51 17 -44
-1z"/>
<path d="M2453 7041 c4 -26 17 -40 17 -18 0 10 0 20 1 24 0 4 -4 9 -10 11 -6
2 -10 -5 -8 -17z"/>
<path d="M1510 7020 c-24 -6 -23 -7 19 -29 23 -12 40 -17 36 -11 -4 7 -3 15 3
19 17 10 -31 27 -58 21z"/>
<path d="M1317 6970 c-6 -24 12 -38 24 -19 7 11 11 10 22 -5 8 -11 19 -16 25
-12 7 4 12 2 12 -3 0 -6 10 -10 23 -10 16 1 18 2 5 6 -10 2 -18 9 -18 15 0 5
-7 8 -15 5 -8 -4 -22 4 -34 18 -23 30 -37 32 -44 5z"/>
<path d="M1439 6976 c8 -9 24 -22 35 -28 19 -10 20 -10 7 6 -8 9 -24 22 -35
28 -19 10 -20 10 -7 -6z"/>
<path d="M1875 6945 c-20 -9 -64 -13 -128 -11 -67 1 -104 -2 -115 -11 -15 -11
-12 -13 23 -14 22 -1 49 -2 60 -3 83 -4 255 26 255 46 0 12 -62 8 -95 -7z"/>
<path d="M2043 6900 c-45 -27 -41 -40 13 -40 40 0 45 2 34 15 -10 12 -9 16 4
21 9 3 16 10 16 15 0 15 -33 10 -67 -11z"/>
<path d="M1293 6863 c4 -3 10 -3 14 0 3 4 0 7 -7 7 -7 0 -10 -3 -7 -7z"/>
<path d="M1555 6810 c5 -8 14 -22 22 -30 8 -8 19 -23 26 -33 7 -9 37 -26 67
-37 30 -11 46 -14 35 -7 -11 6 -37 29 -59 50 -21 21 -41 35 -44 32 -3 -3 -17
5 -30 17 -14 13 -22 16 -17 8z"/>
<path d="M2050 6810 c0 -5 6 -10 14 -10 8 0 18 5 21 10 3 6 -3 10 -14 10 -12
0 -21 -4 -21 -10z"/>
<path d="M1300 6804 c0 -19 32 -40 150 -98 84 -42 108 -50 88 -32 -38 34 -35
39 12 20 23 -9 43 -15 45 -12 2 2 -6 18 -18 36 -23 33 -97 69 -116 57 -18 -10
-12 -33 10 -40 11 -4 18 -9 16 -11 -10 -11 -153 48 -169 69 -10 12 -18 17 -18
11z"/>
<path d="M1789 6667 c4 -5 32 -7 62 -5 l54 3 -62 5 c-34 3 -58 1 -54 -3z"/>
<path d="M1350 6655 c0 -5 10 -21 21 -35 13 -17 17 -18 10 -5 -17 33 -31 51
-31 40z"/>
<path d="M2990 6633 c0 -14 10 -23 31 -29 18 -5 37 -18 43 -29 6 -11 20 -32
32 -46 15 -19 21 -42 22 -86 2 -71 -19 -137 -124 -388 -15 -36 -35 -108 -31
-112 2 -1 23 35 46 80 31 59 58 94 95 125 56 47 83 57 121 48 35 -9 31 -32 -9
-58 -32 -21 -50 -50 -112 -181 -18 -38 1 -45 52 -18 21 12 48 21 59 21 18 0
55 37 80 80 8 13 7 13 -8 1 -10 -8 -20 -12 -22 -9 -7 7 45 79 54 73 20 -11 29
21 20 68 -8 46 -62 150 -98 192 -10 11 -33 55 -52 98 -51 118 -94 163 -174
183 -20 5 -25 2 -25 -13z m300 -513 c0 -10 -9 -24 -21 -30 -20 -11 -20 -11 -4
19 18 36 25 39 25 11z m-40 -110 c0 -5 -5 -10 -11 -10 -5 0 -7 5 -4 10 3 6 8
10 11 10 2 0 4 -4 4 -10z"/>
<path d="M2183 6583 c4 -3 10 -3 14 0 3 4 0 7 -7 7 -7 0 -10 -3 -7 -7z"/>
<path d="M2966 6534 c-3 -9 -6 -26 -6 -39 0 -13 -6 -26 -12 -28 -10 -4 -10 -6
-1 -6 18 -1 42 40 40 67 -2 26 -12 29 -21 6z"/>
<path d="M2993 6478 c-7 -24 -21 -49 -32 -55 -17 -11 -19 -10 -15 2 10 25 -10
16 -23 -10 -13 -29 -8 -34 28 -30 l25 3 -23 -46 c-26 -55 -27 -62 -10 -62 29
1 84 179 68 221 -5 16 -9 11 -18 -23z"/>
<path d="M2567 6478 c19 -21 43 -24 43 -4 0 8 -13 16 -30 18 -28 4 -29 4 -13
-14z"/>
<path d="M1990 6330 c0 -5 7 -10 16 -10 8 0 12 5 9 10 -3 6 -10 10 -16 10 -5
0 -9 -4 -9 -10z"/>
<path d="M2073 6333 c4 -3 10 -3 14 0 3 4 0 7 -7 7 -7 0 -10 -3 -7 -7z"/>
<path d="M1945 6310 c3 -5 8 -10 11 -10 3 0 2 5 -1 10 -3 6 -8 10 -11 10 -3 0
-2 -4 1 -10z"/>
<path d="M2334 6275 c-4 -9 -4 -26 -2 -39 4 -18 -1 -27 -15 -33 -28 -13 104
-6 138 7 14 5 25 17 25 26 0 12 -5 14 -17 9 -50 -21 -72 -18 -90 14 -20 34
-31 39 -39 16z"/>
<path d="M2220 6187 c0 -23 10 -25 41 -10 38 19 37 23 -6 23 -22 0 -35 -5 -35
-13z"/>
<path d="M1676 6151 c-10 -11 -16 -28 -14 -38 3 -15 13 -18 56 -19 32 0 57 5
64 13 8 10 7 13 -5 13 -9 0 -29 11 -45 25 -36 30 -35 30 -56 6z"/>
<path d="M3346 6077 c-3 -19 -16 -43 -27 -53 -12 -10 -25 -27 -30 -37 -9 -15
-6 -17 28 -16 21 1 59 -2 86 -6 31 -5 47 -4 47 3 0 6 -10 12 -22 14 -18 2 -26
13 -35 52 -7 27 -19 56 -26 64 -12 12 -15 9 -21 -21z"/>
<path d="M3483 5963 c9 -2 25 -2 35 0 9 3 1 5 -18 5 -19 0 -27 -2 -17 -5z"/>
<path d="M3560 5950 c19 -12 20 -12 -80 -15 -91 -2 -160 -23 -160 -49 0 -9
-12 -16 -32 -19 -18 -3 2 -3 45 -1 62 4 77 2 77 -10 0 -13 4 -12 30 0 17 9 30
20 30 25 0 6 5 7 10 4 10 -6 -29 -45 -45 -45 -16 0 -50 -37 -50 -54 0 -14 -12
-23 -40 -33 -44 -15 -82 -40 -73 -48 3 -3 21 3 39 14 58 33 189 83 202 77 6
-3 19 -10 27 -15 8 -6 60 -28 115 -51 55 -23 123 -52 150 -66 63 -30 199 -153
171 -154 -10 0 -31 12 -45 26 -43 42 -143 99 -197 112 -27 7 -88 14 -133 15
-70 3 -86 6 -100 24 -77 94 -242 24 -373 -161 -24 -33 -53 -58 -94 -80 -74
-39 -95 -70 -129 -198 -16 -57 -39 -127 -52 -156 -44 -101 -93 -306 -93 -392
0 -26 -8 -61 -20 -83 -11 -20 -20 -42 -20 -48 0 -22 42 -150 48 -144 3 3 11
62 19 133 13 131 23 191 51 300 12 52 23 69 55 98 23 19 44 34 49 34 16 0 7
-62 -17 -112 -22 -45 -32 -100 -38 -210 -1 -10 -5 -18 -10 -18 -4 0 -7 -26 -6
-57 1 -32 -6 -94 -15 -138 -27 -126 -31 -169 -17 -160 8 4 10 17 7 31 -5 17
-2 24 9 24 8 0 15 6 15 13 0 6 13 22 28 34 15 12 36 42 47 67 11 25 26 46 33
46 6 0 12 5 12 11 0 6 35 48 77 95 78 84 110 105 98 62 -4 -13 -9 -31 -11 -40
-3 -10 -10 -18 -15 -18 -5 0 -9 -5 -9 -12 0 -6 -6 -19 -14 -27 -12 -14 -44
-69 -82 -140 -7 -13 -29 -41 -48 -62 -20 -20 -36 -43 -36 -51 0 -8 -6 -20 -12
-27 -11 -11 -9 -11 10 -1 39 20 36 4 -8 -44 -42 -45 -42 -46 -42 -120 1 -66
-4 -83 -34 -143 -38 -76 -41 -88 -19 -97 14 -5 14 -9 0 -36 -10 -20 -16 -61
-17 -121 -1 -79 1 -94 17 -105 16 -12 16 -14 3 -14 -19 0 -32 -48 -53 -203
-13 -100 -13 -116 2 -185 9 -43 16 -93 15 -112 -8 -169 -3 -236 22 -306 20
-55 26 -90 26 -152 0 -44 5 -115 11 -157 l10 -76 -39 -43 c-69 -75 -87 -128
-70 -211 l10 -52 -43 -42 c-70 -68 -92 -87 -129 -112 -19 -13 -39 -29 -45 -35
-5 -7 -31 -28 -57 -47 -43 -33 -46 -34 -51 -15 -5 16 -10 18 -29 12 -13 -4
-29 -7 -35 -7 -7 0 -13 -5 -13 -12 0 -16 -37 -16 -51 1 -6 8 -18 14 -25 14
-10 0 -14 15 -14 54 0 45 4 58 22 70 18 13 25 13 37 3 9 -8 33 -18 53 -24 35
-10 41 -9 79 19 40 29 69 78 69 117 0 11 -12 29 -26 40 -14 11 -23 25 -20 30
15 23 -7 59 -45 76 -21 10 -55 33 -73 51 -38 37 -38 53 -2 122 22 43 21 54
-15 107 -43 64 -93 99 -138 98 -59 -2 -83 -8 -96 -26 -12 -17 -30 -109 -26
-137 5 -40 47 -119 79 -148 l36 -33 -41 -37 c-43 -39 -60 -77 -38 -86 11 -4
11 -13 3 -42 -15 -57 1 -127 49 -203 1 -2 9 2 18 9 25 21 17 -5 -10 -30 -14
-13 -25 -29 -25 -35 0 -6 -11 -22 -25 -35 -28 -26 -31 -46 -11 -73 12 -15 20
-16 61 -7 26 6 50 9 52 7 13 -14 -14 -61 -49 -83 -24 -15 -38 -31 -35 -39 3
-7 0 -21 -8 -31 -8 -12 -10 -25 -4 -35 6 -13 0 -22 -29 -42 -98 -65 -235 -141
-522 -289 -76 -39 -104 -46 -115 -28 -3 5 -13 10 -22 10 -8 0 -28 9 -44 21
-33 23 -139 61 -249 89 -56 15 -77 16 -88 8 -11 -10 -12 -6 -7 24 6 31 4 38
-14 47 -26 15 -27 32 -1 54 11 9 20 21 20 26 0 17 -20 23 -35 11 -26 -21 -16
4 16 43 18 21 37 36 45 33 8 -3 11 0 7 10 -3 7 0 14 7 14 7 0 10 6 7 13 -3 7
4 19 14 25 10 7 19 21 19 32 0 10 10 26 23 35 12 8 22 19 22 24 0 14 46 89 79
127 26 31 27 38 16 58 -11 21 -9 28 11 55 12 17 26 31 30 31 12 0 68 76 85
115 8 20 10 34 5 30 -6 -3 -11 2 -11 11 0 25 -13 8 -26 -34 l-12 -37 -1 32
c-1 33 25 102 44 115 6 4 10 11 10 15 0 4 6 17 13 28 10 17 13 18 22 5 8 -13
10 -12 10 4 0 11 5 16 14 13 9 -4 22 15 40 62 14 36 26 72 26 79 0 7 4 20 9
30 5 9 17 34 25 54 11 25 21 35 31 32 22 -9 40 43 23 64 -40 50 -52 56 -118
60 -68 3 -102 23 -116 64 -3 10 -29 30 -57 44 -47 25 -58 26 -147 21 -126 -6
-201 -33 -257 -93 l-42 -45 -7 26 c-16 62 57 102 238 131 79 12 112 13 170 4
87 -13 101 -6 21 10 -54 12 -206 9 -288 -5 -16 -2 -3 5 30 16 92 32 247 23
375 -21 52 -18 105 -38 117 -46 20 -13 103 -36 103 -29 0 2 -6 10 -13 17 -8 7
-20 34 -29 58 -10 31 -21 46 -35 48 -14 2 -20 11 -20 28 0 27 0 27 44 15 l33
-10 -14 28 c-14 25 -69 59 -159 95 -20 8 -37 20 -37 26 0 7 6 8 19 0 11 -5 45
-10 75 -10 48 0 56 3 56 19 0 13 -15 26 -46 41 -45 21 -74 42 -74 54 0 3 5 5
11 3 17 -3 19 31 2 37 -8 3 -11 10 -8 16 4 6 -9 10 -32 11 -21 0 -56 6 -78 13
l-40 12 35 8 c19 5 46 14 60 21 14 8 34 17 45 21 16 5 9 10 -35 24 -33 11 -56
24 -58 34 -4 18 4 19 173 22 146 3 147 3 139 15 -4 6 1 10 12 8 22 -3 114 39
114 52 0 17 -55 9 -67 -10 -6 -10 -23 -21 -37 -23 -20 -4 -26 -1 -26 13 0 20
-17 23 -60 9 -18 -6 -20 -8 -7 -9 10 -1 15 -5 12 -11 -7 -11 -96 -3 -109 11
-6 5 -21 9 -34 9 -13 0 -38 6 -55 14 -18 8 -56 22 -85 30 -50 14 -52 14 -42
-4 5 -10 15 -20 22 -23 7 -2 10 -8 6 -12 -11 -12 -58 28 -52 46 3 12 -3 19
-21 23 -31 8 -33 26 -3 26 12 0 18 3 15 7 -4 3 -2 12 3 18 8 9 4 14 -15 19
-31 8 -32 20 -3 40 32 23 110 20 154 -5 23 -13 39 -17 43 -10 4 6 12 7 21 1 8
-6 27 -10 43 -10 32 0 36 -17 5 -29 -21 -8 -21 -8 6 -15 16 -4 30 -5 32 -4 1
2 4 23 5 46 3 36 8 46 36 63 18 11 33 23 33 25 0 3 -18 4 -40 2 -22 -1 -40 -5
-40 -9 0 -13 -33 -19 -46 -8 -7 6 -18 8 -23 5 -5 -4 -12 -2 -16 4 -3 5 -17 10
-31 10 -33 0 -74 28 -85 58 -5 13 -18 26 -29 29 -11 3 -17 9 -15 14 6 9 -30
49 -45 49 -5 0 -13 6 -17 14 -4 7 -18 17 -31 20 -35 11 -38 -17 -12 -106 12
-43 20 -81 17 -85 -4 -3 -2 -14 4 -25 8 -15 4 -28 -20 -64 -17 -25 -31 -48
-31 -53 0 -4 11 -18 25 -31 29 -27 32 -40 10 -40 -18 0 -95 -115 -95 -142 0
-21 4 -22 30 -8 52 28 62 -34 11 -78 -30 -27 -129 -102 -133 -102 -8 0 -5 80
3 80 5 0 9 7 9 15 0 8 10 25 22 37 16 16 17 20 5 15 -21 -8 -22 6 -2 23 10 9
12 17 6 23 -10 10 -4 38 11 47 4 4 9 66 10 139 3 117 1 134 -14 142 -21 12
-25 51 -5 43 8 -3 23 14 40 44 l26 48 -24 41 c-29 51 -38 92 -36 160 0 28 -4
55 -9 58 -7 4 -6 13 1 27 9 16 7 24 -10 41 -11 12 -19 26 -19 32 0 5 -7 14
-15 19 -12 8 -20 6 -29 -7 -12 -15 -46 -23 -128 -30 -14 -1 -28 -6 -32 -12 -5
-6 -11 -6 -19 2 -9 9 -16 9 -31 0 -15 -10 -20 -9 -27 2 -6 9 -11 10 -15 2 -8
-13 -95 -13 -176 -1 -30 4 -59 4 -64 0 -11 -11 -117 0 -133 12 -9 7 -15 5 -19
-6 -3 -9 -11 -13 -18 -9 -6 5 -84 8 -174 8 l-162 0 2 -270 3 -269 39 -8 c22
-5 48 -15 57 -24 11 -10 26 -13 45 -8 55 13 82 51 104 143 9 36 15 49 21 40 7
-11 9 -11 9 1 0 13 1 13 10 0 5 -8 12 -11 15 -8 11 11 -5 68 -19 68 -20 0 -33
20 -29 43 10 50 212 77 316 41 33 -11 63 -14 100 -10 155 19 158 19 179 -1 11
-10 26 -30 34 -46 13 -24 13 -28 -1 -33 -8 -3 -15 -11 -15 -18 0 -19 -88 -50
-113 -39 -33 14 -54 5 -66 -29 -22 -62 -14 -76 42 -85 32 -4 67 -34 67 -58 0
-7 22 -32 49 -54 61 -52 69 -78 38 -134 -53 -94 -69 -116 -85 -122 -34 -10
-200 -12 -253 -3 -30 6 -88 11 -129 13 -41 1 -79 3 -85 5 -5 1 -14 2 -18 1 -4
-1 -15 12 -25 29 -9 17 -28 33 -42 36 -50 11 -74 30 -92 72 -11 24 -17 49 -15
56 16 40 -51 59 -94 27 -16 -12 -33 -21 -39 -21 -7 0 -10 -145 -10 -450 l0
-450 83 -1 c45 0 168 -2 272 -4 105 -2 270 -4 367 -5 155 -1 178 -4 178 -17 0
-27 -30 -192 -55 -303 -13 -58 -40 -141 -60 -185 -60 -131 -62 -137 -69 -203
-10 -104 -59 -237 -126 -340 -33 -51 -65 -94 -72 -97 -7 -2 -103 -7 -213 -11
-110 -4 -218 -8 -240 -10 -22 -1 -46 -3 -52 -3 -10 -1 -13 -115 -13 -534 0
-524 0 -533 20 -533 20 0 27 23 46 141 3 22 8 47 10 56 3 9 -2 24 -10 32 -14
13 -13 27 3 123 11 60 22 139 26 177 5 47 11 67 21 67 32 0 80 46 107 102 29
59 49 70 55 30 5 -30 22 -28 22 3 0 15 6 25 15 25 11 0 12 -5 5 -24 -14 -38
-1 -38 39 -1 20 19 41 33 47 31 6 -3 17 6 24 20 8 13 19 24 26 24 7 0 20 3 30
7 13 5 15 3 9 -7 -5 -7 -12 -43 -16 -79 -5 -36 -9 -77 -11 -90 -4 -31 36 -46
99 -36 35 5 57 17 90 49 44 41 45 43 55 131 10 86 12 92 47 122 20 18 41 33
48 33 7 0 35 23 63 50 28 28 55 50 60 50 5 0 12 9 15 20 4 11 10 18 15 15 5
-3 12 4 15 16 5 13 10 18 17 11 9 -9 -6 -89 -25 -127 -10 -20 -10 -20 13 0
l24 20 -22 -38 c-27 -46 -27 -43 1 -52 49 -16 97 1 97 35 0 10 7 23 15 30 12
10 13 5 8 -38 -5 -47 -4 -50 25 -67 29 -18 62 -71 62 -102 0 -11 -6 -14 -22
-9 -71 20 -106 18 -199 -12 -87 -28 -131 -50 -254 -125 -33 -20 -72 -33 -133
-42 -85 -13 -180 -37 -214 -56 -23 -12 -23 -1 2 36 11 17 20 34 20 40 0 5 -11
-7 -25 -27 -14 -20 -25 -42 -25 -47 0 -6 -13 -17 -28 -25 -45 -23 -65 -84 -42
-126 9 -17 18 -19 58 -13 26 3 50 11 54 17 4 7 36 10 79 9 64 -1 77 2 113 26
43 29 71 35 124 26 31 -6 32 -8 32 -51 0 -25 -5 -54 -10 -65 -8 -14 -6 -27 6
-51 15 -29 15 -33 -1 -62 -10 -17 -27 -40 -40 -51 -12 -11 -30 -40 -39 -65
-18 -47 -58 -111 -88 -142 -17 -17 -18 -17 -18 5 l-1 22 -19 -24 c-11 -13 -20
-31 -20 -40 -1 -23 -63 -87 -110 -111 -46 -24 -66 -50 -75 -102 l-7 -38 931 0
931 0 0 30 c0 21 -8 35 -26 47 -22 14 -58 17 -257 18 -128 1 -236 4 -242 5 -5
2 -21 0 -34 -4 -35 -12 -7 -26 54 -26 34 0 45 -3 35 -9 -28 -17 -250 -18 -250
-1 0 6 21 10 48 10 70 0 82 13 33 36 -22 11 -43 25 -45 32 -3 7 1 47 9 90 16
79 45 301 45 337 0 18 -6 20 -65 19 l-65 0 -68 -70 c-84 -85 -223 -217 -239
-227 -21 -13 -71 78 -67 123 3 33 -1 43 -31 69 -34 29 -46 61 -24 61 5 0 15
14 20 30 6 17 17 30 24 30 7 0 15 6 18 14 3 8 16 16 29 18 l23 3 -23 23 c-12
12 -18 22 -12 22 17 0 41 59 34 84 -7 29 33 76 65 76 11 0 22 4 25 9 3 5 23 3
43 -4 38 -13 38 -13 73 27 19 22 47 54 63 71 15 16 27 35 27 42 0 7 6 18 14
24 24 20 31 -8 9 -32 -11 -12 -23 -30 -26 -39 -4 -10 -11 -18 -16 -18 -12 0
-53 -81 -46 -88 8 -8 77 72 99 112 22 42 36 46 36 11 0 -14 -5 -25 -11 -25 -5
0 -15 -13 -20 -30 -6 -16 -15 -30 -20 -30 -10 0 -59 -74 -59 -89 0 -21 29 2
39 30 5 16 15 29 20 29 13 0 58 70 67 103 7 31 68 62 137 71 65 9 77 17 83 57
5 29 11 39 23 38 24 -2 81 24 81 38 0 13 14 18 80 29 40 6 43 5 31 -10 -12
-14 -11 -16 8 -16 12 0 31 5 41 10 10 6 31 11 45 12 15 2 31 10 36 20 5 9 15
15 23 12 7 -3 16 2 20 11 3 9 11 15 18 13 16 -3 68 45 68 63 0 8 6 6 16 -7 8
-10 13 -13 9 -7 -3 7 -3 13 2 14 70 6 103 27 103 66 l0 24 27 -26 c34 -31 54
-32 90 -1 21 18 37 23 65 20 21 -1 40 1 43 7 9 13 52 11 58 -3 4 -10 6 -10 6
0 1 6 7 12 15 12 8 0 16 3 19 8 2 4 2 1 1 -5 -2 -7 4 -13 13 -13 9 0 31 -11
49 -25 44 -34 114 -65 131 -58 8 3 13 -3 13 -17 0 -18 3 -20 14 -11 8 7 20 11
28 10 23 -5 52 11 73 39 17 23 20 41 18 127 l-3 100 19 -30 c10 -17 25 -36 34
-44 15 -12 17 -10 17 18 0 18 -4 30 -10 26 -5 -3 -18 2 -28 12 -58 56 -57 56
-58 5 -1 -26 -11 -74 -22 -107 l-19 -60 -39 4 c-22 1 -46 9 -55 17 -8 8 -22
14 -30 14 -37 0 -138 90 -139 123 0 15 5 14 40 -8 48 -30 116 -32 123 -3 3 9
21 24 41 32 40 16 46 38 19 68 -9 10 -14 21 -10 24 3 3 14 -4 24 -16 18 -21
53 -45 53 -36 0 2 -6 11 -13 18 -25 25 -58 78 -50 78 5 0 14 -5 20 -11 14 -14
63 -1 63 17 0 8 5 14 11 14 5 0 17 16 25 35 12 29 19 35 44 35 33 0 38 13 15
36 -28 29 -18 43 25 37 33 -5 45 -1 64 16 12 12 26 18 30 14 4 -4 11 -1 16 7
8 13 12 12 24 -5 9 -11 16 -15 16 -9 0 7 33 14 81 17 45 4 88 12 97 19 12 10
16 10 19 1 4 -10 8 -9 20 2 13 13 13 17 0 30 -18 18 -148 78 -154 71 -8 -8
-86 45 -143 97 -29 26 -46 47 -38 47 8 0 48 -12 89 -26 101 -35 177 -27 242
25 15 12 17 12 17 -4 0 -14 3 -16 11 -8 16 16 71 -9 139 -63 31 -24 62 -44 68
-44 7 0 12 -4 12 -9 0 -5 9 -11 20 -14 21 -5 65 37 55 54 -3 4 0 39 6 76 13
77 18 234 7 227 -3 -2 -8 10 -10 28 -3 28 -5 30 -12 13 -15 -39 -24 -50 -40
-47 -9 2 -16 -3 -16 -10 0 -7 -7 -2 -16 10 -8 12 -20 20 -25 17 -5 -4 -12 1
-15 9 -3 8 -14 18 -24 21 -19 6 -32 38 -24 60 3 7 24 20 47 29 59 22 100 59
84 75 -9 10 -8 15 8 24 11 7 31 14 45 17 18 4 26 14 33 43 5 21 15 37 23 37 8
0 14 7 14 15 0 9 -6 12 -15 9 -18 -7 -18 -15 -5 266 14 282 18 326 33 308 16
-19 57 -43 83 -50 17 -4 21 -1 21 21 0 36 10 173 15 191 2 10 -5 15 -22 16
-60 2 -62 2 -49 26 10 19 12 19 21 5 11 -20 28 -22 28 -4 0 8 -7 28 -16 46
-12 24 -19 30 -27 22 -6 -6 -19 -11 -28 -11 -14 0 -16 -5 -8 -37 10 -44 11
-77 2 -53 -4 8 -15 21 -26 30 -11 10 -19 28 -19 46 0 38 -7 48 -24 33 -8 -6
-17 -9 -20 -6 -7 7 -44 -24 -44 -37 0 -14 -44 -48 -48 -37 -2 7 -10 5 -19 -5
-12 -12 -18 -13 -23 -3 -6 8 -9 6 -13 -7 -4 -16 -5 -17 -6 -1 -1 10 -9 17 -21
17 -11 0 -23 6 -26 14 -5 12 -58 24 -141 32 -18 2 -40 7 -50 12 -26 14 -163
15 -163 2 0 -6 8 -13 18 -16 37 -12 112 -49 112 -57 0 -5 4 -6 9 -2 5 3 16 -4
25 -16 8 -12 19 -18 25 -15 5 4 15 -2 21 -14 6 -11 26 -30 46 -44 22 -15 30
-26 22 -28 -11 -4 -11 -8 0 -21 9 -11 11 -21 4 -33 -7 -13 -10 -10 -16 17 -5
27 -9 31 -16 19 -8 -12 -10 -12 -10 -1 0 7 -6 11 -14 8 -8 -3 -26 3 -40 14
-14 11 -26 15 -26 9 0 -7 -8 -5 -22 4 -12 9 -33 16 -45 16 -21 0 -71 18 -118
43 -11 6 -33 18 -50 26 -16 9 -33 21 -37 26 -5 6 -8 5 -8 -3 0 -7 -20 7 -44
30 -24 24 -61 56 -81 73 -46 36 -32 42 43 21 32 -9 96 -17 145 -18 48 -2 87
-6 87 -11 0 -4 8 -3 18 1 9 5 31 16 47 24 17 8 53 21 80 27 28 7 59 15 70 18
11 3 31 5 45 5 14 0 50 8 80 18 99 33 243 39 224 8 -4 -6 -1 -9 7 -6 19 6 25
48 7 48 -8 0 -19 5 -26 12 -9 9 -8 16 5 30 9 11 18 27 20 36 4 29 14 163 18
243 1 42 8 86 14 98 7 11 12 42 12 69 0 80 8 102 34 102 36 0 57 -26 49 -64
l-6 -33 64 3 c54 2 66 -1 76 -17 7 -11 8 -19 2 -19 -5 0 -10 -4 -10 -9 0 -5 9
-7 20 -4 13 3 20 0 20 -8 0 -15 72 -79 89 -79 6 0 11 -4 11 -10 0 -18 18 -10
23 11 3 13 12 19 24 17 13 -2 17 3 16 20 -2 12 1 22 5 22 4 0 6 19 4 41 -3 26
-1 39 5 36 6 -4 9 -17 8 -29 -1 -13 0 -15 2 -5 2 9 9 17 16 17 8 0 8 3 -1 12
-9 9 -8 16 6 31 11 13 17 36 17 71 0 28 4 57 9 65 5 8 10 49 12 93 2 44 6 84
10 89 3 6 8 28 10 50 3 22 15 62 27 90 21 48 23 50 55 44 29 -5 32 -4 32 19 0
38 -73 236 -114 309 -20 36 -51 76 -69 89 -49 34 -147 121 -147 131 0 10 -59
88 -103 137 -18 19 -44 51 -59 70 -34 44 -90 103 -151 158 -43 38 -46 44 -32
58 8 9 15 19 15 24 0 5 3 17 6 27 6 15 4 16 -6 6 -10 -10 -17 -10 -28 -1 -16
14 -32 -4 -32 -36 0 -11 -3 -16 -7 -12 -5 4 -8 17 -8 29 0 16 -9 23 -39 29
-28 6 -42 5 -47 -4 -6 -9 -11 -5 -17 12 -5 14 -13 24 -18 22 -5 -2 -10 2 -13
9 -4 14 22 10 118 -16 35 -9 72 -15 82 -12 11 3 19 2 19 -2 0 -4 7 -16 15 -27
13 -16 14 -16 9 -1 -4 12 -1 17 11 17 12 0 15 5 10 23 -11 36 -23 42 -43 24
-24 -22 -60 -22 -103 0 l-34 18 75 8 c90 10 135 -1 186 -45 19 -17 46 -52 59
-77 33 -63 134 -161 168 -161 19 0 33 -11 54 -40 15 -22 34 -42 41 -45 8 -3
-9 25 -38 62 -66 87 -251 267 -303 296 -26 14 -44 33 -50 52 -13 41 -12 41
-49 10 l-33 -28 33 6 c18 4 32 2 32 -3 0 -6 -30 -10 -67 -10 -48 0 -64 3 -53
10 8 5 23 10 32 10 23 0 33 19 11 19 -37 2 -179 11 -202 13 -13 2 -26 9 -29
17 -3 9 0 11 8 6 9 -5 11 -4 6 3 -4 7 -17 12 -29 12 -18 0 -19 -2 -7 -10z
m-190 -44 c0 -3 -4 -8 -10 -11 -5 -3 -10 -1 -10 4 0 6 5 11 10 11 6 0 10 -2
10 -4z m375 -16 c4 -6 -16 -10 -52 -11 -32 0 -76 -1 -97 -2 -22 -1 -41 3 -43
10 -5 14 183 18 192 3z m-220 -10 c3 -5 1 -10 -4 -10 -6 0 -11 5 -11 10 0 6 2
10 4 10 3 0 8 -4 11 -10z m75 -70 c0 -5 -4 -10 -9 -10 -6 0 -13 5 -16 10 -3 6
1 10 9 10 9 0 16 -4 16 -10z m-16 -216 c34 -13 12 -26 -64 -37 -29 -4 -19 18
13 30 17 6 33 12 34 12 1 1 8 -2 17 -5z m496 -467 c0 -5 -6 -7 -14 -4 -9 4
-16 -3 -21 -20 -7 -30 -20 -21 -30 20 -5 18 -3 27 5 27 7 0 9 8 4 23 -6 20 -4
20 25 -7 17 -17 31 -34 31 -39z m-260 -17 c0 -5 -2 -10 -4 -10 -3 0 -8 5 -11
10 -3 6 -1 10 4 10 6 0 11 -4 11 -10z m-413 -27 c-4 -3 -10 -3 -14 0 -3 4 0 7
7 7 7 0 10 -3 7 -7z m560 -20 c-4 -3 -10 -3 -14 0 -3 4 0 7 7 7 7 0 10 -3 7
-7z m94 -59 c8 -10 -4 -5 -28 11 -24 15 -43 29 -43 32 0 8 57 -27 71 -43z
m-191 -24 c22 0 36 -22 25 -40 -5 -8 -12 -4 -22 9 -19 28 -37 26 -51 -4 -9
-19 -9 -25 1 -25 9 0 9 -2 -1 -8 -13 -9 -12 -38 1 -59 5 -8 18 -6 47 8 21 10
48 19 60 19 11 0 19 3 18 8 -3 13 13 52 22 52 5 0 12 -5 15 -10 4 -6 11 -8 16
-5 5 4 9 -4 10 -17 0 -13 3 -17 6 -10 7 17 23 15 23 -3 0 -8 3 -14 8 -14 22 4
70 -15 66 -26 -6 -14 -73 -37 -86 -29 -4 3 -5 -2 -2 -10 3 -9 2 -16 -3 -16 -4
0 -8 -24 -8 -54 0 -51 -6 -59 -31 -44 -6 4 -26 3 -44 -2 -38 -11 -35 -12 -45
19 -5 18 -4 23 6 19 39 -15 59 -19 59 -11 0 9 -48 33 -67 33 -10 0 -11 5 -5
17 7 11 6 21 -3 30 -7 7 -16 18 -18 25 -4 11 -7 10 -15 0 -5 -7 -16 -10 -25
-6 -9 3 -17 2 -17 -4 0 -6 -9 -8 -20 -5 -16 4 -19 11 -14 27 12 36 13 63 3
106 -12 54 -6 62 36 44 19 -8 44 -14 55 -14z m225 0 c3 -5 4 -10 1 -10 -3 0
-8 5 -11 10 -3 6 -4 10 -1 10 3 0 8 -4 11 -10z m95 -46 c22 -9 45 -25 51 -35
15 -29 -10 -24 -59 12 -59 43 -57 49 8 23z m-333 -61 c-4 -3 -7 0 -7 7 0 7 3
10 7 7 3 -4 3 -10 0 -14z m-399 -81 c2 -7 -2 -10 -12 -6 -9 3 -16 1 -16 -6 0
-6 -4 -9 -9 -5 -6 3 -14 -2 -19 -11 -6 -11 -16 -15 -27 -10 -20 7 -13 19 27
41 28 16 50 15 56 -3z m359 -19 c-4 -3 -7 0 -7 7 0 7 3 10 7 7 3 -4 3 -10 0
-14z m50 -10 c-4 -3 -10 -3 -14 0 -3 4 0 7 7 7 7 0 10 -3 7 -7z m355 -20 c19
-17 24 -43 8 -43 -11 0 -50 40 -50 52 0 13 22 9 42 -9z m-365 -40 c-4 -3 -7 0
-7 7 0 7 3 10 7 7 3 -4 3 -10 0 -14z m-444 -10 c-22 -15 -30 -23 -46 -45 -14
-20 -58 -30 -78 -18 -17 11 -15 13 50 48 55 29 112 41 74 15z m522 -23 c3 -5
1 -10 -4 -10 -6 0 -11 5 -11 10 0 6 2 10 4 10 3 0 8 -4 11 -10z m52 -7 c-4 -3
-7 0 -7 7 0 7 3 10 7 7 3 -4 3 -10 0 -14z m220 10 c-4 -3 -10 -3 -14 0 -3 4 0
7 7 7 7 0 10 -3 7 -7z m-307 -77 c0 -3 -4 -8 -10 -11 -5 -3 -10 -1 -10 4 0 6
5 11 10 11 6 0 10 -2 10 -4z m-575 -28 c-1 -13 2 -38 7 -56 7 -27 6 -38 -7
-52 -9 -10 -18 -25 -19 -34 -1 -9 -15 -29 -31 -46 -28 -29 -28 -30 -9 -45 10
-8 26 -12 35 -9 37 11 88 13 94 4 3 -6 17 -10 31 -10 13 0 24 -5 24 -11 0 -6
-9 -9 -20 -6 -11 3 -20 2 -20 -3 0 -19 -52 -58 -70 -53 -14 4 -20 0 -20 -12 0
-12 -6 -16 -20 -12 -17 4 -20 0 -20 -23 0 -16 -3 -36 -7 -46 -5 -14 -3 -16 11
-11 12 5 16 3 14 -5 -3 -7 -11 -13 -19 -13 -8 0 -23 -8 -33 -17 -11 -10 -25
-18 -32 -18 -7 0 -15 -8 -19 -18 -3 -11 -17 -24 -30 -30 -30 -14 -33 -31 -5
-34 11 -1 32 -3 48 -4 15 -2 78 -5 141 -8 62 -3 116 -7 119 -10 3 -4 14 -6 24
-6 10 0 18 -4 18 -9 0 -21 -73 -31 -234 -32 -136 0 -176 -3 -194 -15 -25 -17
-52 -5 -52 23 0 11 -3 11 -14 1 -12 -11 -11 -14 3 -19 14 -6 13 -8 -4 -14 -11
-5 -35 -14 -54 -21 -41 -17 -41 -17 -41 1 0 9 9 15 23 15 23 0 47 17 47 32 0
4 -12 8 -26 8 -14 0 -23 -4 -19 -9 10 -17 -15 -23 -31 -7 -8 9 -24 16 -35 16
-31 0 -22 23 34 81 93 97 197 225 197 244 0 6 14 24 30 40 17 16 30 38 30 50
0 12 15 39 33 61 19 21 32 44 30 50 -6 19 37 83 65 98 15 8 27 14 28 15 0 1 0
-9 -1 -21z m894 -57 c-15 -5 -22 6 -14 19 6 9 10 9 16 -1 5 -8 4 -15 -2 -18z
m-559 -81 c0 -5 -2 -10 -4 -10 -3 0 -8 5 -11 10 -3 6 -1 10 4 10 6 0 11 -4 11
-10z m401 -14 c17 -7 22 -36 7 -36 -5 0 -6 -5 -2 -12 4 -6 3 -8 -4 -4 -6 3
-17 19 -25 35 -14 29 -10 32 24 17z m-486 -16 c3 -5 -1 -10 -10 -10 -9 0 -13
5 -10 10 3 6 8 10 10 10 2 0 7 -4 10 -10z m320 -10 c5 -8 11 -8 20 0 9 7 16 6
25 -5 11 -13 10 -14 -4 -9 -9 4 -16 1 -16 -6 0 -7 -7 -10 -14 -7 -10 4 -13 1
-9 -9 3 -7 0 -14 -6 -14 -6 0 -11 6 -11 14 0 8 -3 21 -6 30 -7 18 11 22 21 6z
m90 -10 c3 -5 1 -10 -4 -10 -6 0 -11 5 -11 10 0 6 2 10 4 10 3 0 8 -4 11 -10z
m42 -7 c-4 -3 -7 0 -7 7 0 7 3 10 7 7 3 -4 3 -10 0 -14z m-477 -3 c0 -5 -4
-10 -10 -10 -5 0 -10 5 -10 10 0 6 5 10 10 10 6 0 10 -4 10 -10z m-93 -26 c2
-7 -6 -10 -22 -7 -14 3 -25 9 -25 13 0 12 43 6 47 -6z m266 -6 c23 4 22 -5 -4
-19 -17 -9 -23 -8 -30 2 -7 11 -9 11 -9 -2 0 -10 -11 -19 -25 -21 -31 -6 -40
5 -20 22 8 7 15 9 15 6 0 -4 7 0 16 8 8 9 21 13 27 9 7 -4 20 -6 30 -5z m344
-20 c-3 -8 -6 -5 -6 6 -1 11 2 17 5 13 3 -3 4 -12 1 -19z m-459 -63 c-16 -13
-28 -28 -28 -32 -1 -18 -48 -102 -54 -96 -3 3 -6 1 -6 -5 0 -18 -77 -55 -83
-39 -3 9 -8 9 -21 -2 -9 -8 -20 -11 -23 -7 -9 9 116 128 128 121 5 -4 9 -1 9
4 0 10 -22 16 -45 12 -17 -4 19 28 56 49 19 10 48 19 64 19 l30 0 -27 -24z
m622 -65 c0 -5 -4 -10 -10 -10 -5 0 -10 5 -10 10 0 6 5 10 10 10 6 0 10 -4 10
-10z m-1268 -20 c-13 -10 -22 -22 -22 -25 1 -3 -1 -11 -3 -18 -3 -6 -6 -3 -6
7 -1 20 27 55 44 55 6 0 0 -8 -13 -19z m1227 2 c9 -16 6 -19 -20 -20 -16 0
-27 4 -24 9 4 5 13 9 21 9 8 0 12 5 9 10 -3 6 -4 10 -1 10 3 0 10 -8 15 -18z
m-852 -8 c-3 -3 -12 -4 -19 -1 -8 3 -5 6 6 6 11 1 17 -2 13 -5z m863 -34 c0
-5 -8 -10 -17 -10 -15 0 -16 2 -3 10 19 12 20 12 20 0z m-495 -197 c38 -42 33
-50 -35 -57 -53 -6 -100 -18 -106 -27 -3 -5 -22 -9 -42 -9 -20 0 -55 -5 -77
-11 -22 -6 -52 -12 -66 -13 -14 -2 -32 -6 -39 -11 -8 -5 -15 -4 -17 1 -2 6
-34 9 -76 7 -39 -1 -114 -3 -165 -4 -96 -2 -113 -8 -86 -30 19 -16 25 -17 132
-25 45 -4 85 -10 87 -15 3 -4 -21 -15 -52 -24 -77 -23 -164 -17 -196 13 -13
12 -27 22 -32 22 -14 0 -45 32 -45 47 0 8 4 12 9 9 5 -3 11 5 13 19 3 14 1 25
-5 25 -6 0 -8 3 -4 6 3 3 19 -2 35 -11 27 -17 32 -17 73 -1 51 19 327 64 444
72 44 4 103 14 130 24 71 25 91 24 120 -7z m-3645 -55 c0 -10 3 -9 9 1 18 29
28 1 12 -34 -18 -39 -35 -44 -51 -16 -17 33 -12 61 10 61 11 0 20 -6 20 -12z
m2817 -25 c-4 -3 -10 -3 -14 0 -3 4 0 7 7 7 7 0 10 -3 7 -7z m-2640 -20 c-4
-3 -7 0 -7 7 0 7 3 10 7 7 3 -4 3 -10 0 -14z m3458 7 c3 -5 3 -10 -2 -11 -4 0
-21 -3 -38 -5 -28 -4 -29 -3 -11 11 23 17 42 19 51 5z m-98 -27 c-4 -3 -7 0
-7 7 0 7 3 10 7 7 3 -4 3 -10 0 -14z m-3330 -25 c-3 -8 -6 -5 -6 6 -1 11 2 17
5 13 3 -3 4 -12 1 -19z m2633 -222 c0 -17 29 -74 49 -99 9 -10 24 -28 34 -39
29 -35 22 -47 -15 -27 -19 10 -20 9 -15 -12 5 -20 0 -17 -29 16 -57 65 -64 84
-52 138 5 26 14 45 19 41 5 -3 9 -11 9 -18z m-1540 -171 c-6 -11 -47 -8 -70 6
-10 6 -1 8 30 7 26 -2 43 -7 40 -13z m2535 -34 c3 -5 2 -12 -3 -15 -5 -3 -9 1
-9 9 0 17 3 19 12 6z m-2505 -21 c23 -7 24 -8 5 -14 -11 -4 -30 -12 -43 -17
-13 -5 -37 -9 -55 -9 l-32 1 28 15 c15 8 27 19 27 24 0 11 34 11 70 0z m1667
-17 c-4 -3 -10 -3 -14 0 -3 4 0 7 7 7 7 0 10 -3 7 -7z m828 -3 c3 -5 1 -10 -4
-10 -6 0 -11 5 -11 10 0 6 2 10 4 10 3 0 8 -4 11 -10z m-408 -35 c2 -13 -1
-26 -6 -29 -5 -3 -8 10 -8 29 1 38 9 38 14 0z m66 8 c-4 -11 -3 -14 5 -9 7 4
12 1 12 -8 0 -21 -27 -9 -33 14 -5 21 1 32 14 24 4 -2 5 -12 2 -21z m390 7 c3
-10 -1 -24 -7 -29 -10 -8 -11 -3 -8 19 5 35 8 37 15 10z m-1018 -30 c35 -16
68 -30 73 -30 5 0 15 -6 21 -14 6 -7 27 -16 47 -19 20 -3 52 -18 72 -34 20
-15 43 -28 51 -28 59 -6 301 -98 301 -115 0 -4 21 -11 48 -15 26 -4 56 -12 67
-18 11 -6 28 -10 38 -8 11 1 17 -4 17 -17 0 -15 5 -18 26 -14 19 3 25 1 20 -7
-11 -17 10 -13 28 5 15 14 18 14 36 -8 24 -28 24 -34 5 -42 -13 -5 -15 -18
-11 -63 2 -32 2 -52 -1 -45 -7 17 -23 15 -23 -4 0 -8 -4 -12 -10 -9 -5 3 -10
1 -10 -6 0 -27 -23 10 -25 41 -3 33 -32 73 -46 64 -5 -3 -7 -10 -4 -15 4 -5 1
-9 -4 -9 -6 0 -11 6 -11 13 0 6 -6 3 -12 -7 -8 -14 -8 -24 0 -37 12 -19 6 -49
-8 -49 -5 0 -12 5 -16 11 -4 7 -10 7 -16 1 -6 -6 -19 -5 -36 4 -15 8 -36 14
-47 14 -20 0 -45 17 -45 30 0 3 34 4 75 2 62 -2 75 0 75 13 0 8 -3 14 -7 13
-5 -1 -19 2 -32 6 -19 7 -22 13 -17 37 3 15 2 31 -3 33 -5 3 -11 -8 -15 -24
-5 -29 -7 -30 -51 -26 -25 2 -45 0 -45 -6 0 -5 -5 -6 -10 -3 -6 4 -7 12 -3 18
4 7 -2 5 -12 -3 -17 -14 -18 -13 -13 8 5 16 1 25 -10 29 -9 4 -20 11 -24 17
-5 7 -8 7 -8 -2 0 -7 -5 -10 -12 -6 -7 4 -8 3 -4 -5 4 -6 11 -9 16 -6 4 3 10
-4 13 -15 5 -20 -3 -26 -17 -13 -3 4 -13 8 -22 9 -8 1 -37 14 -63 28 -27 14
-51 22 -55 19 -3 -4 -6 0 -6 8 0 11 -2 12 -9 1 -7 -12 -12 -12 -29 -1 -25 16
-31 44 -18 80 15 41 47 34 110 -26 63 -60 74 -66 99 -53 10 5 17 5 17 -1 0
-13 27 -22 45 -15 8 4 15 14 15 23 0 17 -34 60 -48 62 -29 3 -60 12 -85 24
-17 8 -37 15 -46 15 -30 0 -100 35 -110 55 -8 17 -10 18 -10 3 -1 -21 -12 -23
-30 -5 -11 10 -12 6 -7 -23 6 -32 6 -33 -8 -16 -8 10 -20 15 -26 11 -8 -5 -11
1 -8 16 2 18 -1 23 -14 21 -10 -2 -18 2 -18 7 0 6 -16 17 -35 25 -19 8 -35 22
-35 30 0 8 -5 18 -12 22 -7 4 -8 3 -4 -4 13 -22 0 -12 -44 33 -24 25 -41 45
-37 45 4 0 37 -13 72 -30z m988 15 c-3 -9 -8 -14 -10 -11 -3 3 -2 9 2 15 9 16
15 13 8 -4z m-313 -66 c0 -5 7 -6 15 -3 20 8 58 -21 60 -46 2 -19 1 -19 -18
-3 -15 13 -21 15 -24 6 -7 -19 -21 -16 -57 12 -18 14 -38 25 -44 25 -7 0 -12
5 -12 10 0 7 6 7 20 0 16 -8 20 -8 20 4 0 9 7 12 20 9 11 -3 20 -9 20 -14z
m110 -39 c0 -5 -2 -10 -4 -10 -3 0 -8 5 -11 10 -3 6 -1 10 4 10 6 0 11 -4 11
-10z m56 -20 c8 0 14 -7 14 -15 0 -19 -46 -20 -53 -1 -3 7 0 19 6 25 8 8 13 8
15 1 2 -5 10 -10 18 -10z m-2686 -14 c0 -3 -5 -8 -12 -12 -7 -4 -8 -3 -4 4 7
12 16 16 16 8z m2688 -127 c-2 -7 -10 -4 -18 7 -9 11 -10 15 -2 10 7 -4 12 -2
13 6 0 10 2 10 6 1 2 -7 3 -18 1 -24z m-904 5 c9 -24 7 -66 -3 -60 -11 7 -20
76 -10 76 4 0 10 -7 13 -16z m253 9 c-4 -3 -10 -3 -14 0 -3 4 0 7 7 7 7 0 10
-3 7 -7z m693 3 c0 -3 -4 -8 -10 -11 -5 -3 -10 -1 -10 4 0 6 5 11 10 11 6 0
10 -2 10 -4z m-685 -26 c3 -5 1 -10 -4 -10 -6 0 -11 5 -11 10 0 6 2 10 4 10 3
0 8 -4 11 -10z m-2065 -20 c-20 -13 -43 -13 -35 0 3 6 16 10 28 10 18 0 19 -2
7 -10z m437 -27 c-4 -3 -10 -3 -14 0 -3 4 0 7 7 7 7 0 10 -3 7 -7z m73 -33 c0
-5 -4 -10 -10 -10 -5 0 -10 5 -10 10 0 6 5 10 10 10 6 0 10 -4 10 -10z m1373
-86 c12 -7 51 -26 86 -43 35 -18 91 -51 124 -74 33 -23 74 -50 91 -60 31 -19
124 -87 158 -116 10 -9 18 -20 18 -25 0 -14 41 -56 55 -56 6 0 26 -16 45 -35
19 -19 43 -35 53 -35 9 0 17 -5 17 -10 0 -20 82 -99 124 -119 37 -19 42 -25
43 -57 1 -30 -2 -35 -18 -31 -10 3 -23 -1 -30 -9 -6 -8 -22 -14 -35 -14 -13 0
-24 -6 -25 -12 0 -10 -2 -10 -6 0 -2 6 -11 12 -19 12 -13 0 -65 25 -113 55
-38 23 -137 117 -205 193 -36 39 -37 42 -13 33 35 -13 42 1 14 27 -12 12 -31
31 -42 42 -11 12 -21 16 -23 11 -2 -6 -18 3 -35 19 -19 19 -39 29 -50 26 -12
-3 -36 12 -69 42 -83 76 -157 156 -164 176 -5 14 -13 17 -34 12 -23 -4 -29 -1
-34 19 -3 13 -9 30 -12 39 -4 10 -1 16 9 16 8 0 20 7 28 16 11 14 14 13 27 -8
7 -13 24 -28 35 -34z m724 9 c-4 -3 -7 0 -7 7 0 7 3 10 7 7 3 -4 3 -10 0 -14z
m13 -54 c0 -14 -27 -10 -33 5 -4 10 0 12 14 9 10 -3 19 -9 19 -14z m-665 -349
c40 -42 28 -45 -19 -4 -22 19 -33 34 -25 34 9 0 28 -13 44 -30z m105 20 c0 -5
-2 -10 -4 -10 -3 0 -8 5 -11 10 -3 6 -1 10 4 10 6 0 11 -4 11 -10z m-93 -149
c29 -33 29 -42 0 -28 -21 10 -97 97 -97 112 0 9 69 -50 97 -84z m-119 29 c6
-16 7 -30 2 -30 -12 0 -21 17 -25 45 -3 32 10 23 23 -15z m321 -14 c7 -8 22
-17 35 -20 12 -3 28 -17 36 -31 7 -14 19 -25 27 -25 7 0 13 -4 13 -10 0 -5 -5
-10 -11 -10 -5 0 -7 -5 -3 -11 11 -19 -57 -2 -133 33 -37 17 -75 32 -83 32 -8
1 -16 9 -18 19 -4 18 13 24 23 7 4 -6 12 -7 18 -3 7 4 24 6 39 4 20 -2 28 2
28 13 0 20 14 21 29 2z m-909 -166 c0 -5 -5 -10 -11 -10 -5 0 -7 5 -4 10 3 6
8 10 11 10 2 0 4 -4 4 -10z m50 -20 c-6 -11 -15 -20 -20 -20 -16 0 -11 18 8
29 24 14 24 14 12 -9z m35 -9 c-9 -16 -25 -3 -18 15 4 10 9 12 15 6 6 -6 7
-15 3 -21z m1272 2 c-4 -3 -10 -3 -14 0 -3 4 0 7 7 7 7 0 10 -3 7 -7z m-2348
-63 c-15 -34 -31 -55 -47 -61 -14 -5 -26 -8 -28 -7 -3 4 51 85 73 110 26 28
26 14 2 -42z m62 -23 c-8 -8 -11 -7 -11 4 0 9 3 19 7 23 4 4 9 2 11 -4 3 -7
-1 -17 -7 -23z m-24 -24 c-4 -3 -7 0 -7 7 0 7 3 10 7 7 3 -4 3 -10 0 -14z
m1350 -20 c-4 -3 -7 0 -7 7 0 7 3 10 7 7 3 -4 3 -10 0 -14z m-1447 -66 c-14
-8 -27 -12 -30 -10 -7 6 23 23 40 23 8 0 4 -6 -10 -13z m-40 -31 c0 -3 -5 -8
-12 -12 -7 -4 -8 -3 -4 4 7 12 16 16 16 8z m1627 -223 c-4 -3 -7 0 -7 7 0 7 3
10 7 7 3 -4 3 -10 0 -14z m-1838 -55 c-8 -14 -14 -18 -17 -10 -4 13 17 46 25
38 3 -2 -1 -15 -8 -28z m1811 -68 c0 -9 -50 -23 -57 -17 -2 3 3 12 12 20 15
16 45 13 45 -3z m127 -142 c-3 -8 -6 -5 -6 6 -1 11 2 17 5 13 3 -3 4 -12 1
-19z m-360 -35 c-4 -3 -7 0 -7 7 0 7 3 10 7 7 3 -4 3 -10 0 -14z m-2117 -112
c0 -6 -4 -13 -10 -16 -5 -3 -10 -14 -10 -23 0 -15 2 -15 10 -2 6 10 10 11 10
3 0 -7 9 -13 21 -13 11 0 17 -4 14 -10 -3 -5 -19 -10 -34 -10 -33 0 -54 -20
-49 -47 2 -12 -4 -19 -19 -21 -13 -2 -23 2 -23 8 0 6 -5 8 -11 4 -18 -10 5 27
46 75 19 24 35 47 35 52 0 5 5 9 10 9 6 0 10 -4 10 -9z m67 -28 c-4 -3 -7 0
-7 7 0 7 3 10 7 7 3 -4 3 -10 0 -14z m-196 -31 c-15 -28 -14 -35 5 -28 11 4
14 1 12 -12 -3 -12 -12 -16 -34 -15 -24 2 -38 -5 -63 -33 -32 -34 -75 -59 -97
-55 -6 0 -17 -5 -23 -13 -10 -12 -8 -17 8 -26 12 -6 21 -20 21 -30 0 -22 -3
-23 -48 -14 -35 7 -34 19 6 72 14 18 26 49 28 68 1 21 11 44 23 55 21 20 21
20 21 -3 1 -22 1 -22 18 5 11 17 25 27 42 27 14 1 39 7 55 14 36 16 40 14 26
-12z m1034 -77 c-16 -13 -31 -22 -33 -20 -7 7 33 43 48 44 9 0 3 -9 -15 -24z
m-31 -87 c-4 -7 -16 -19 -25 -26 -20 -14 -49 -68 -49 -91 0 -15 83 67 106 106
7 10 15 15 19 11 7 -6 -33 -70 -48 -77 -4 -1 -19 -21 -33 -43 l-25 -39 -18 22
c-17 21 -19 22 -42 6 -32 -23 -39 -21 -39 9 0 17 6 28 20 31 11 3 20 10 20 15
0 5 5 6 10 3 6 -4 30 14 55 39 43 45 64 59 49 34z m-1151 -23 c-3 -9 -8 -14
-10 -11 -3 3 -2 9 2 15 9 16 15 13 8 -4z m1002 -828 c28 -14 64 -37 80 -52
l30 -25 -43 3 c-39 4 -43 2 -39 -15 4 -15 -2 -22 -23 -30 -16 -5 -32 -18 -35
-29 -7 -22 -35 -26 -35 -4 0 8 -4 15 -8 15 -8 0 -31 61 -38 99 -3 17 37 69 51
66 6 0 33 -13 60 -28z m245 -153 c0 -2 -9 -4 -21 -4 -11 0 -18 4 -14 10 5 8
35 3 35 -6z"/>
<path d="M3998 4863 c7 -3 16 -2 19 1 4 3 -2 6 -13 5 -11 0 -14 -3 -6 -6z"/>
<path d="M3910 4800 c0 -5 5 -10 10 -10 6 0 10 5 10 10 0 6 -4 10 -10 10 -5 0
-10 -4 -10 -10z"/>
<path d="M3113 4023 c4 -3 10 -3 14 0 3 4 0 7 -7 7 -7 0 -10 -3 -7 -7z"/>
<path d="M3550 4220 c0 -7 3 -10 7 -7 3 4 3 10 0 14 -4 3 -7 0 -7 -7z"/>
<path d="M3143 3033 c4 -3 10 -3 14 0 3 4 0 7 -7 7 -7 0 -10 -3 -7 -7z"/>
<path d="M3430 2961 c0 -5 7 -11 15 -15 9 -3 15 0 15 9 0 8 -7 15 -15 15 -8 0
-15 -4 -15 -9z"/>
<path d="M3400 2935 c0 -8 9 -15 20 -15 24 0 27 15 4 24 -22 9 -24 8 -24 -9z"/>
<path d="M3468 2939 c-25 -14 -23 -38 3 -32 11 3 18 11 15 19 -3 7 0 15 7 18
7 2 8 5 2 5 -5 0 -18 -4 -27 -10z"/>
<path d="M3713 2855 c-7 -8 -13 -19 -13 -25 0 -18 15 -10 27 15 12 27 5 32
-14 10z"/>
<path d="M3673 5933 c4 -3 10 -3 14 0 3 4 0 7 -7 7 -7 0 -10 -3 -7 -7z"/>
<path d="M2348 5768 c-24 -25 -23 -48 3 -48 11 0 18 -4 15 -9 -4 -5 3 -7 14
-4 25 7 27 44 3 65 -16 13 -20 13 -35 -4z"/>
<path d="M1935 5731 c-7 -25 -81 -101 -97 -101 -6 0 -8 -3 -5 -7 6 -5 -36 -33
-49 -33 -2 0 -4 14 -4 30 0 45 -40 38 -58 -10 -6 -16 -17 -25 -32 -25 -13 0
-25 -5 -27 -11 -2 -7 7 -10 26 -8 22 3 30 -1 34 -16 3 -11 11 -20 19 -20 7 0
21 -12 30 -28 9 -15 25 -36 36 -45 19 -17 20 -17 26 8 4 14 4 30 1 35 -3 5 -1
11 5 15 5 3 10 17 10 30 0 26 77 108 92 99 5 -3 17 1 26 10 9 9 27 25 40 35
l22 19 -29 12 c-17 7 -33 11 -37 10 -4 -1 -10 4 -14 10 -5 9 -10 6 -15 -9z"/>
<path d="M2168 5603 c-10 -2 -18 -9 -18 -14 0 -15 53 -6 58 9 4 12 -8 14 -40
5z"/>
<path d="M1680 5490 c0 -5 5 -10 11 -10 5 0 7 5 4 10 -3 6 -8 10 -11 10 -2 0
-4 -4 -4 -10z"/>
<path d="M2040 5486 c0 -8 7 -16 15 -20 9 -3 15 0 15 8 0 8 -7 16 -15 20 -9 3
-15 0 -15 -8z"/>
<path d="M4250 5490 c0 -7 3 -10 7 -7 3 4 3 10 0 14 -4 3 -7 0 -7 -7z"/>
<path d="M2228 5473 c-46 -19 -50 -35 -5 -21 17 6 38 12 45 14 13 4 17 24 5
23 -5 0 -25 -7 -45 -16z"/>
<path d="M2080 5472 c0 -13 24 -22 60 -22 16 0 31 -6 33 -12 3 -8 6 -7 6 4 1
21 -6 26 -57 34 -26 4 -42 3 -42 -4z"/>
<path d="M1950 5456 c0 -8 8 -13 18 -11 9 2 19 4 22 4 7 2 -23 21 -32 21 -5 0
-8 -6 -8 -14z"/>
<path d="M1825 5400 c-7 -12 29 -67 60 -92 12 -9 34 -35 49 -57 16 -23 37 -41
46 -41 10 0 21 -7 24 -16 3 -8 10 -13 15 -9 5 3 12 1 16 -5 3 -6 28 -7 58 -4
29 3 59 6 67 6 8 1 20 5 26 9 6 5 33 12 60 16 27 3 52 11 56 17 5 7 8 6 8 -4
0 -9 3 -11 8 -5 4 6 20 19 36 29 20 13 25 21 17 29 -6 6 -11 20 -10 32 0 16 3
14 14 -10 7 -16 11 -33 8 -37 -2 -5 5 -8 16 -8 15 0 19 4 14 17 -4 10 -2 14 5
9 13 -8 42 31 42 56 0 21 -9 22 -47 6 -15 -6 -30 -11 -33 -10 -3 0 -25 4 -50
8 -63 11 -91 9 -209 -12 -90 -16 -105 -16 -115 -4 -6 8 -18 16 -25 18 -8 2
-20 11 -27 19 -10 15 -13 14 -23 -5 -12 -22 -12 -21 -52 18 -45 44 -45 44 -54
30z"/>
<path d="M1740 5340 c0 -7 3 -10 7 -7 3 4 3 10 0 14 -4 3 -7 0 -7 -7z"/>
<path d="M2010 5330 c0 -7 3 -10 7 -7 3 4 3 10 0 14 -4 3 -7 0 -7 -7z"/>
<path d="M1726 5253 c-23 -140 -45 -483 -32 -483 4 0 12 12 19 28 11 26 12 24
15 -28 1 -30 9 -59 16 -65 7 -5 15 -16 17 -24 3 -7 18 9 37 39 26 41 32 59 27
82 -5 20 -12 28 -21 24 -8 -3 -14 -1 -14 3 0 5 4 11 8 13 5 2 11 68 14 148 5
135 3 134 -15 -15 -15 -119 -20 -145 -28 -145 -5 0 -7 16 -4 35 5 40 3 41 -19
19 -15 -14 -16 -10 -11 53 10 142 14 343 5 348 -4 3 -11 -12 -14 -32z"/>
<path d="M1830 5275 c-7 -9 -10 -18 -7 -21 3 -3 10 4 17 15 13 25 8 27 -10 6z"/>
<path d="M2039 4863 l-24 -28 28 24 c25 23 32 31 24 31 -2 0 -14 -12 -28 -27z"/>
<path d="M1968 4807 c-15 -12 -38 -30 -52 -40 -25 -17 -35 -37 -18 -37 10 0
102 85 102 94 0 9 -2 8 -32 -17z"/>
<path d="M1820 4689 c0 -5 5 -7 10 -4 6 3 10 8 10 11 0 2 -4 4 -10 4 -5 0 -10
-5 -10 -11z"/>
<path d="M1670 4677 c0 -4 9 -24 19 -45 20 -38 61 -83 61 -65 0 5 -9 18 -21
29 -12 10 -29 35 -40 54 -10 19 -18 31 -19 27z"/>
<path d="M4470 4635 c-3 -77 -12 -148 -20 -171 -6 -14 -8 -30 -5 -34 10 -16
33 1 44 32 13 38 15 191 2 184 -5 -4 -12 0 -14 6 -3 7 -6 0 -7 -17z"/>
<path d="M2353 4593 c4 -3 10 -3 14 0 3 4 0 7 -7 7 -7 0 -10 -3 -7 -7z"/>
<path d="M2055 4380 c-17 -33 -20 -54 -5 -45 6 3 10 2 10 -4 0 -6 12 -14 26
-17 29 -7 44 7 44 44 0 27 -8 28 -26 5 -12 -16 -13 -15 -14 15 0 40 -15 41
-35 2z"/>
<path d="M2721 4384 c-22 -28 -37 -84 -28 -106 3 -7 6 -1 6 14 1 18 11 35 31
50 29 21 39 51 21 63 -5 3 -19 -7 -30 -21z"/>
<path d="M2160 4380 c0 -5 5 -10 11 -10 5 0 7 5 4 10 -3 6 -8 10 -11 10 -2 0
-4 -4 -4 -10z"/>
<path d="M2210 4370 c0 -7 3 -10 7 -7 3 4 3 10 0 14 -4 3 -7 0 -7 -7z"/>
<path d="M2149 4345 c0 -5 -2 -18 -4 -28 -3 -15 -1 -16 11 -6 7 6 11 15 8 20
-3 5 4 9 15 9 12 0 21 -7 21 -15 0 -10 9 -14 25 -13 28 3 29 23 1 23 -9 0 -20
6 -24 12 -9 14 -52 13 -53 -2z"/>
<path d="M2305 4340 c-3 -6 1 -7 9 -4 18 7 21 14 7 14 -6 0 -13 -4 -16 -10z"/>
<path d="M3892 4267 c-10 -34 -5 -97 7 -97 4 0 8 6 9 13 0 6 3 22 6 34 2 13 1
25 -5 28 -5 4 -6 17 -3 31 9 37 -4 29 -14 -9z"/>
<path d="M2690 4256 c0 -4 7 -32 16 -62 17 -61 41 -87 29 -33 -7 33 -45 113
-45 95z"/>
<path d="M1593 4223 c4 -3 10 -3 14 0 3 4 0 7 -7 7 -7 0 -10 -3 -7 -7z"/>
<path d="M4250 4070 c0 -7 3 -10 7 -7 3 4 3 10 0 14 -4 3 -7 0 -7 -7z"/>
<path d="M3970 3890 c0 -7 3 -10 7 -7 3 4 3 10 0 14 -4 3 -7 0 -7 -7z"/>
<path d="M1433 3843 c-4 -10 -14 -24 -22 -30 -13 -11 -8 -12 29 -7 31 4 41 3
31 -4 -8 -6 -20 -8 -28 -5 -7 3 -13 0 -13 -6 0 -6 -7 -11 -15 -11 -8 0 -15 -4
-15 -10 0 -5 7 -10 16 -10 10 0 14 -6 10 -15 -3 -10 1 -15 13 -15 10 0 21 9
24 20 6 24 27 27 27 4 0 -13 2 -13 17 2 13 13 14 19 5 22 -17 5 -15 23 6 38
12 9 13 13 3 14 -7 0 -11 6 -7 15 4 11 -2 15 -26 15 -25 0 -28 -3 -19 -14 9
-10 8 -15 -4 -20 -13 -5 -20 5 -16 27 2 14 -10 7 -16 -10z"/>
<path d="M1360 3805 c0 -8 2 -15 4 -15 2 0 6 7 10 15 3 8 1 15 -4 15 -6 0 -10
-7 -10 -15z"/>
<path d="M3868 3713 c-24 -6 -23 -20 2 -33 11 -6 20 -8 20 -5 0 4 7 -1 16 -9
8 -9 12 -22 8 -28 -4 -7 3 -3 15 10 32 32 25 67 -14 69 -16 0 -38 -1 -47 -4z"/>
<path d="M4030 3610 c-27 -4 -35 -10 -35 -25 0 -16 6 -20 33 -18 40 1 45 5 40
30 -2 15 -10 17 -38 13z"/>
<path d="M1418 3603 c7 -3 16 -2 19 1 4 3 -2 6 -13 5 -11 0 -14 -3 -6 -6z"/>
<path d="M1481 3601 c-8 -6 -9 -11 -3 -15 6 -3 14 -1 17 5 9 14 2 20 -14 10z"/>
<path d="M1305 3580 c3 -5 11 -10 16 -10 6 0 7 5 4 10 -3 6 -11 10 -16 10 -6
0 -7 -4 -4 -10z"/>
<path d="M1290 3557 c0 -10 83 -45 96 -40 25 9 15 32 -13 32 -16 -1 -40 2 -55
6 -16 4 -28 5 -28 2z"/>
<path d="M1440 3534 l-25 -15 34 5 c18 3 41 6 50 7 12 0 11 2 -4 9 -27 11 -26
12 -55 -6z"/>
<path d="M3663 3523 c4 -3 10 -3 14 0 3 4 0 7 -7 7 -7 0 -10 -3 -7 -7z"/>
<path d="M3690 3520 c0 -7 3 -10 7 -7 3 4 3 10 0 14 -4 3 -7 0 -7 -7z"/>
<path d="M1493 3503 c4 -3 10 -3 14 0 3 4 0 7 -7 7 -7 0 -10 -3 -7 -7z"/>
<path d="M1540 3500 c0 -5 14 -10 32 -10 36 0 35 4 -4 14 -17 4 -28 2 -28 -4z"/>
<path d="M1583 3453 c4 -3 10 -3 14 0 3 4 0 7 -7 7 -7 0 -10 -3 -7 -7z"/>
<path d="M445 3330 c3 -5 8 -10 11 -10 3 0 2 5 -1 10 -3 6 -8 10 -11 10 -3 0
-2 -4 1 -10z"/>
<path d="M3845 3180 c-8 -13 4 -32 16 -25 12 8 12 35 0 35 -6 0 -13 -4 -16
-10z"/>
<path d="M3891 3164 c0 -11 3 -14 6 -6 3 7 2 16 -1 19 -3 4 -6 -2 -5 -13z"/>
<path d="M1428 2823 c7 -3 16 -2 19 1 4 3 -2 6 -13 5 -11 0 -14 -3 -6 -6z"/>
<path d="M1640 2469 c0 -5 5 -7 10 -4 6 3 10 8 10 11 0 2 -4 4 -10 4 -5 0 -10
-5 -10 -11z"/>
<path d="M1470 2260 c0 -7 3 -10 7 -7 3 4 3 10 0 14 -4 3 -7 0 -7 -7z"/>
<path d="M1447 2213 c-4 -3 -7 -13 -7 -22 1 -13 3 -13 11 2 11 19 8 33 -4 20z"/>
<path d="M3456 2014 c-9 -22 3 -32 14 -14 12 19 12 30 1 30 -5 0 -12 -7 -15
-16z"/>
<path d="M4490 1780 c0 -7 3 -10 7 -7 3 4 3 10 0 14 -4 3 -7 0 -7 -7z"/>
<path d="M3775 1350 c-3 -6 1 -7 9 -4 18 7 21 14 7 14 -6 0 -13 -4 -16 -10z"/>
<path d="M4243 1253 c4 -3 10 -3 14 0 3 4 0 7 -7 7 -7 0 -10 -3 -7 -7z"/>
<path d="M2495 1052 c-118 -40 -139 -54 -154 -101 -14 -48 -31 -54 -31 -11 0
17 -2 30 -5 30 -9 0 -100 -31 -130 -45 -38 -16 -167 -55 -186 -55 -31 0 -118
-46 -123 -65 -3 -11 -6 -81 -6 -155 0 -108 -4 -147 -19 -190 -21 -60 -18 -75
25 -109 29 -23 113 -51 153 -51 14 0 36 -11 50 -24 15 -13 61 -43 103 -65 60
-32 87 -41 126 -41 43 0 54 4 71 26 24 31 27 64 6 64 -8 0 -21 10 -29 23 -36
56 -18 162 27 155 18 -2 22 -10 22 -38 1 -19 5 -46 9 -59 5 -13 9 -47 11 -75
l2 -51 84 -42 c74 -38 113 -49 156 -44 9 1 11 60 7 236 l-4 236 26 45 c26 44
26 46 16 147 -12 123 -42 269 -56 279 -20 14 -70 7 -151 -20z m-128 -380 c22
-7 35 -7 39 -1 6 10 44 -17 44 -31 0 -4 -21 -14 -46 -21 -26 -8 -49 -20 -51
-26 -3 -7 -19 -13 -37 -13 -23 0 -34 6 -41 23 -6 12 -20 23 -32 25 -12 2 -24
10 -27 18 -3 8 -2 13 3 10 5 -3 26 3 47 14 22 11 46 18 54 16 8 -3 30 -9 47
-14z m-204 -122 c7 0 6 4 -3 10 -11 7 -7 8 15 6 16 -2 31 -9 33 -16 6 -16 -19
-31 -40 -24 -10 3 -18 1 -18 -4 0 -18 -40 -20 -61 -3 l-22 17 28 22 c24 19 29
20 42 7 8 -8 20 -15 26 -15z"/>
<path d="M1700 1049 c0 -5 5 -7 10 -4 6 3 10 8 10 11 0 2 -4 4 -10 4 -5 0 -10
-5 -10 -11z"/>
<path d="M4473 993 c4 -3 10 -3 14 0 3 4 0 7 -7 7 -7 0 -10 -3 -7 -7z"/>
<path d="M211 899 c-6 -18 -11 -37 -10 -43 0 -6 7 7 15 28 8 22 12 41 10 43
-2 2 -9 -10 -15 -28z"/>
<path d="M146 892 c-17 -28 -45 -304 -28 -287 13 13 33 132 25 152 -4 9 -2 14
3 11 5 -3 9 24 10 63 1 68 0 76 -10 61z"/>
<path d="M164 856 c-3 -13 -4 -37 -2 -52 3 -24 5 -19 14 24 11 50 0 76 -12 28z"/>
<path d="M1466 864 c-9 -8 -16 -22 -16 -30 0 -8 -7 -17 -16 -21 -8 -3 -20 -15
-25 -27 -5 -11 -17 -32 -26 -46 l-17 -25 25 23 c14 12 28 22 32 22 4 0 26 12
48 26 23 14 43 23 46 20 11 -11 -17 -40 -63 -66 -27 -14 -50 -34 -52 -43 -4
-21 21 -22 38 -2 14 17 35 21 25 5 -9 -15 1 -12 45 10 39 20 57 49 23 36 -15
-6 -15 -4 2 14 13 14 14 20 5 20 -11 0 -11 3 -2 12 24 24 11 61 -13 40 -6 -5
-32 -21 -59 -37 l-50 -28 42 50 c23 27 42 52 42 56 0 12 -18 8 -34 -9z"/>
<path d="M3045 850 c3 -5 0 -7 -8 -4 -8 3 -17 -2 -20 -10 -3 -9 -22 -22 -41
-30 -50 -21 -68 -55 -73 -139 -6 -101 -10 -114 -36 -120 -33 -9 -50 -59 -34
-108 6 -22 17 -39 24 -39 14 0 53 48 53 65 0 7 20 42 44 79 25 38 42 74 39 82
-3 10 10 21 41 35 38 16 46 24 41 40 -4 10 -1 45 5 76 11 51 10 58 -6 70 -21
15 -38 17 -29 3z"/>
<path d="M271 664 c0 -11 3 -14 6 -6 3 7 2 16 -1 19 -3 4 -6 -2 -5 -13z"/>
<path d="M261 604 c0 -11 3 -14 6 -6 3 7 2 16 -1 19 -3 4 -6 -2 -5 -13z"/>
<path d="M1371 604 c0 -11 3 -14 6 -6 3 7 2 16 -1 19 -3 4 -6 -2 -5 -13z"/>
<path d="M106 572 c-8 -14 -19 -148 -11 -140 7 7 25 139 20 146 -2 2 -5 -1 -9
-6z"/>
<path d="M448 534 c-10 -22 -10 -28 0 -32 7 -2 35 -21 62 -43 l50 -39 6 26 c4
14 3 29 -2 33 -5 4 -30 24 -56 45 l-48 37 -12 -27z"/>
<path d="M450 421 c0 -5 11 -16 25 -25 19 -13 25 -13 25 -3 0 7 -5 18 -12 25
-14 14 -38 16 -38 3z"/>
<path d="M81 404 c0 -11 3 -14 6 -6 3 7 2 16 -1 19 -3 4 -6 -2 -5 -13z"/>
<path d="M157 322 c1 -8 3 -20 3 -29 0 -13 2 -13 15 1 20 20 21 53 1 37 -8 -7
-16 -8 -18 -4 -3 4 -3 2 -1 -5z"/>
<path d="M20 264 c0 -8 -4 -13 -8 -10 -5 3 -10 -18 -11 -47 -1 -31 2 -48 7
-42 10 10 24 115 17 115 -3 0 -5 -7 -5 -16z"/>
</g>
</svg>
